<svg xmlns="http://www.w3.org/2000/svg" viewBox="0 0 64 64">
  <rect width="64" height="64" rx="14" fill="#0f172a"/>
  <g fill="none" stroke="#f8fafc" stroke-width="5" stroke-linecap="round" stroke-linejoin="round" transform="translate(8 8) scale(2)">
    <path d="M7 10H6a4 4 0 0 1-4-4 1 1 0 0 1 1-1h4"/>
    <path d="M7 5a1 1 0 0 1 1-1h13a1 1 0 0 1 1 1 7 7 0 0 1-7 7H8a1 1 0 0 1-1-1z"/>
    <path d="M9 12v5"/>
    <path d="M15 12v5"/>
    <path d="M5 20a3 3 0 0 1 3-3h8a3 3 0 0 1 3 3 1 1 0 0 1-1 1H6a1 1 0 0 1-1-1"/>
  </g>
</svg>
